<svg xmlns="http://www.w3.org/2000/svg" height="258.625" viewBox="0 0 300.61719 258.625" width="300.61719" fill="#fafafa"><path d="m242.3086 115.095h-183.999999a57.55 57.55 0 1 1 0-115.09h183.999999a57.55 57.55 0 1 1 0 115.09zm-183.999999-103.09a45.55 45.55 0 1 0 0 91.09h183.999999a45.55 45.55 0 1 0 0-91.09z" fill="#fafafa"/><path d="m229.6186 258.625h-40.88a57.55 57.55 0 0 1 0-115.09h40.88a57.55 57.55 0 0 1 0 115.09zm-40.88-103.09a45.55 45.55 0 0 0 0 91.09h40.88a45.55 45.55 0 0 0 0-91.09z" fill="#fafafa"/></svg>